# xmcd
#
# Track frame offsets:
#	150
#	14913
#	27475
#	46315
#	61684
#	78660
#	96224
#	113705
#	132445
#	146880
#	166034
#	180456
#	192621
#	205322
#	216431
#	233152
#	245070
#
# Disc length: 3599 seconds
#
# Revision: 1
# Processed by: cddbd v1.5.2PL0 Copyright (c) Steve Scherf et al.
# Submitted via: ExactAudioCopy v0.99pb5
#
DISCID=000e0d11
DTITLE=Various Artist - Blues and Boogie Vol. 2
DYEAR=2009
DGENRE=Blues
TTITLE0=Steve 'Big Man' Clayton - Where Did You Stay Last Night
TTITLE1=Solly - Sixstrings
TTITLE2=Crazy Hambones - Treat My Disposition
TTITLE3=Los Reyes Del Ko - El Beat De Mi Corazon
TTITLE4=Dynamite Dace (Ex. Fbk) - Second Hand Love
TTITLE5=Henning Pertiet - Abdullah's Blues
TTITLE6=Little Willie Littlefield - I Can't Help It
TTITLE7=Topp Dog Brass Band - the Groove Will Make You Move
TTITLE8=Christian Dozzler - C'mon Joe
TTITLE9=Fritz Cats - Bobby McGee
TTITLE10=Richard Ray Farrell - Supermarket
TTITLE11=Vince Weber - Into It
TTITLE12=Streetrats - L'angoisse
TTITLE13=Peter Crow C. - Evil Queen of Diamonds
TTITLE14=Jan Hirte's Blue Ribbon - Flyin to the Moon
TTITLE15=New Orleans Organ Trio - Second Line Fever
TTITLE16=Soundsville - Hot Barbecue
EXTD=
EXTT0=
EXTT1=
EXTT2=
EXTT3=
EXTT4=
EXTT5=
EXTT6=
EXTT7=
EXTT8=
EXTT9=
EXTT10=
EXTT11=
EXTT12=
EXTT13=
EXTT14=
EXTT15=
EXTT16=
PLAYORDER=
